<svg style="display: none;" xmlns="http://www.w3.org/2000/svg" xmlns:xlink="http://www.w3.org/1999/xlink"><symbol id="nc-icon-money-time" viewBox="0 0 64 64"><title>money time</title><g ><path data-color="color-2" fill="currentColor" d="M50,57c-5.702,0-10.456-1.726-13-4.393V56c0,3.925,5.71,7,13,7s13-3.075,13-7v-3.393&#10;&#9;C60.456,55.274,55.702,57,50,57z"/><path data-color="color-2" fill="currentColor" d="M50,49c-5.702,0-10.456-1.726-13-4.393V48c0,3.925,5.71,7,13,7s13-3.075,13-7v-3.393&#10;&#9;C60.456,47.274,55.702,49,50,49z"/><path data-color="color-2" fill="currentColor" d="M50,33c-7.29,0-13,3.075-13,7s5.71,7,13,7s13-3.075,13-7S57.29,33,50,33z"/><path d="M28,1C13.112,1,1,13.112,1,28s12.112,27,27,27c2.422,0,4.766-0.328,7-0.93V40c0-5.131,6.448-9,15-9&#10;&#9;c1.686,0,3.285,0.155,4.774,0.436C54.918,30.31,55,29.165,55,28C55,13.112,42.888,1,28,1z M29,28c0,0.552-0.447,1-1,1H13&#10;&#9;c-0.553,0-1-0.448-1-1s0.447-1,1-1h14V14c0-0.552,0.447-1,1-1s1,0.448,1,1V28z"/></g></symbol><symbol id="nc-icon-net" viewBox="0 0 64 64"><title>net</title><path  d="M62,31h-5.3c-2.3-1-11.4-16-11.5-19l3.1-5.2c0.3-0.5,0.1-1.1-0.3-1.4c-0.5-0.3-1.1-0.1-1.4,0.3l-2.9,4.9&#10;&#9;c-0.1,0.1-0.1,0.1-0.2,0.2c-0.7,0.5-4.6,1.1-11.5,1.1s-10.8-0.6-11.5-1.1c-0.1-0.1-0.1-0.1-0.2-0.2l-2.9-4.9&#10;&#9;c-0.3-0.5-0.9-0.6-1.4-0.3c-0.5,0.3-0.6,0.9-0.3,1.4l3.1,5.2C18.6,15,9.5,30,7.3,31H2c-0.6,0-1,0.4-1,1s0.4,1,1,1h5.3&#10;&#9;c2.3,1,11.4,16,11.5,19l-3.1,5.2c-0.3,0.5-0.1,1.1,0.3,1.4c0.2,0.1,0.3,0.1,0.5,0.1c0.3,0,0.7-0.2,0.9-0.5l2.9-4.9&#10;&#9;c0.1-0.1,0.1-0.1,0.2-0.2c0.7-0.5,4.6-1.1,11.5-1.1s10.8,0.6,11.5,1.1c0,0.1,0.1,0.1,0.2,0.1l3,4.9c0.2,0.3,0.5,0.5,0.9,0.5&#10;&#9;c0.2,0,0.4,0,0.5-0.1c0.5-0.3,0.6-0.9,0.3-1.4L45.2,52c0.1-2.9,9.2-18,11.5-19H62c0.6,0,1-0.4,1-1S62.6,31,62,31z M32,13.9&#10;&#9;c3.5,0,7.5-0.1,10.2-0.7l-4.3,7c0,0,0,0-0.1,0c-0.5,0.2-2.6,0.5-5.8,0.5s-5.3-0.3-5.8-0.5c0,0,0,0-0.1,0l-4.3-7&#10;&#9;C24.5,13.8,28.5,13.9,32,13.9z M30.2,31h-9.3c2-2.4,4-6,4.1-6c0.3-0.5,0.6-1,0.8-1.4L30.2,31z M27.5,22.6c1.1,0.1,2.5,0.2,4.5,0.2&#10;&#9;s3.4-0.1,4.5-0.2L32,30.1L27.5,22.6z M30.2,33l-4.5,7.5c-0.2-0.4-0.4-0.9-0.8-1.4c0-0.1-2.1-3.7-4.1-6H30.2z M32,33.9l4.5,7.4&#10;&#9;c-1.1-0.1-2.5-0.2-4.5-0.2s-3.4,0.1-4.5,0.2L32,33.9z M33.8,33h9.3c-2,2.4-4,6-4.1,6c-0.3,0.5-0.6,1-0.8,1.4L33.8,33z M33.8,31&#10;&#9;l4.5-7.5c0.2,0.4,0.4,0.9,0.8,1.4c0,0.1,2.1,3.7,4.1,6H33.8z M16.9,20.9c1.7-3,2.7-5.1,3.2-6.6l4.3,7.1c-0.4,1.8-5,8.7-6.3,9.6h-8&#10;&#9;C12.8,28,16.1,22.4,16.9,20.9z M20.1,49.7c-0.5-1.4-1.5-3.5-3.2-6.6c-0.8-1.5-4.1-7.1-6.8-10.1h8c1.3,0.8,5.9,7.8,6.3,9.6L20.1,49.7&#10;&#9;z M32,50.1c-3.5,0-7.5,0.1-10.2,0.7l4.3-7c0,0,0,0,0.1,0c0.5-0.2,2.6-0.5,5.8-0.5s5.3,0.3,5.8,0.5c0,0,0,0,0,0l4.3,7&#10;&#9;C39.5,50.2,35.5,50.1,32,50.1z M47.1,43.1c-1.7,3-2.7,5.1-3.2,6.6l-4.3-7.1c0.4-1.8,5-8.7,6.3-9.6h8C51.2,36,47.9,41.6,47.1,43.1z&#10;&#9; M45.9,31c-1.3-0.8-5.9-7.8-6.3-9.6l4.3-7.1c0.5,1.4,1.5,3.5,3.2,6.6c0.8,1.5,4.1,7.1,6.8,10.1H45.9z"/></symbol><symbol id="nc-icon-tie-02" viewBox="0 0 64 64"><title>tie 02</title><g ><path data-color="color-2" fill="currentColor" d="M52.825,32.269L41.478,15.685L47.1,39.578l5.633-6.064&#10;&#9;C53.051,33.171,53.089,32.654,52.825,32.269z"/><path d="M24.382,13h15.236l5.277-10.553c0.155-0.31,0.138-0.678-0.044-0.973C44.668,1.18,44.347,1,44,1H20&#10;&#9;c-0.347,0-0.668,0.18-0.851,0.474c-0.182,0.295-0.199,0.663-0.044,0.973L24.382,13z"/><path d="M46.974,47.771L39.262,15H24.738l-7.711,32.771c-0.079,0.337,0.021,0.691,0.267,0.936l14,14&#10;&#9;C31.488,62.902,31.744,63,32,63s0.512-0.098,0.707-0.293l14-14C46.952,48.462,47.053,48.108,46.974,47.771z"/></g></symbol>


<symbol id="arrow-top" viewBox="0 0 48 48"><title>arrow-top</title>
<path fill="#a7b4c8" d="M44,36.829l-20-20l-20,20L1.171,34l21.415-21.414c0.78-0.781,2.048-0.781,2.828,0L46.829,34L44,36.829z"></path>
</symbol>

    
<symbol id="bl-logo" viewBox="0 0 4665.8 999.27"><title>blweb-bold-logo</title><path class="a" d="M308.48,303.23c-60.4,0-112.81,19.36-148.13,42.16l-2.28-1.13V5.83H20.2v874l117.36-20.51c41,17.1,86.6,29.64,140.16,29.64,173.2,0,299.68-126.49,299.68-302C577.39,414.9,454.33,303.23,308.48,303.23Zm-35.33,470.6c-39.88,0-85.45-12.54-115.08-29.64V461.62C190,438.82,231,421.72,278.86,421.72c99.13,0,159.52,74.08,159.52,172.08C438.37,692.93,376.85,773.83,273.15,773.83Z" transform="translate(-20.2 -5.83)"/><rect class="a" x="660.9" width="137.88" height="870.54"/><path class="a" d="M1339.69,694.06c-37.6,42.16-91.16,72.93-145.85,72.93-26.21,0-53.55-6.84-74.07-30.77-17.09-19.36-25.07-49-25.07-99.13V315.77H956.84V659.88c0,80.9,16,132.18,50.14,169.78s87.73,59.26,149.26,59.26c75.21,0,135.6-31.9,182.31-75.21l2.28,1.13v61.54h136.73V315.77H1339.69Z" transform="translate(-20.2 -5.83)"/><path class="a" d="M1868.44,303.23c-152.69,0-286,116.23-286,294,0,175.47,132.18,291.7,312.21,291.7,72.93,0,152.68-19.38,205.1-52.41V710C2045,748.76,1979,775,1908.31,775c-94.57,0-168.64-47.85-185.73-141.29h404.5c2.28-14.82,3.42-37.61,3.42-55.84C2130.51,397.8,2007.44,303.23,1868.44,303.23ZM1722.59,538c17.09-84.31,80.9-123.06,144.71-123.06,62.67,0,124.2,38.74,134.45,123.06Z" transform="translate(-20.2 -5.83)"/><path class="b" data-color="color-2" fill="currentColor"  d="M3116.92,720.27V504.9c0-69.49-21.64-117.36-59.25-149.26-42.17-35.33-107.12-52.41-180-52.41-79.76,0-144.71,20.51-189.15,45.57V474.15C2731.78,446.8,2789.9,424,2857.13,424c42.16,0,74.07,9.12,94.57,27.36,18.23,17.08,27.35,42.16,27.35,76.34v33.05a469.89,469.89,0,0,0-108.25-12.54c-58.11,0-115.08,10.26-157.25,38.74s-71.78,74.06-71.78,135.59c0,55.83,23.93,100.26,62.68,128.75,37.59,27.36,84.31,37.61,129.89,37.61,74.07,0,132.18-26.21,166.36-53.56H3003c26.21,35.33,69.5,51.28,115.08,51.28,27.35,0,51.27-5.69,68.37-13.67V764.71c-9.12,4.56-20.51,8-30.77,8C3128.32,772.68,3116.92,751,3116.92,720.27ZM2979,745.34c-27.35,19.36-68.36,34.18-110.52,34.18-49,0-88.88-21.66-88.88-67.23,0-54.69,55.83-72.93,112.81-72.93,27.35,0,61.53,4.56,86.59,11.39Z" transform="translate(-20.2 -5.83)"/><path class="b" data-color="color-2" fill="currentColor"  d="M3553.34,303.23c-60.39,0-112.8,19.36-148.12,42.16l-2.28-1.13V5.83H3265.06v874l117.36-20.51c41,17.1,86.6,29.64,140.16,29.64,173.2,0,299.68-126.49,299.68-302C3822.26,414.9,3699.19,303.23,3553.34,303.23ZM3518,773.83c-39.88,0-85.45-12.54-115.08-29.64V461.62c31.91-22.79,72.93-39.89,120.78-39.89,99.13,0,159.52,74.08,159.52,172.08C3683.24,692.93,3621.71,773.83,3518,773.83Z" transform="translate(-20.2 -5.83)"/><path class="b" data-color="color-2" fill="currentColor" d="M4176.65,303.23c-152.69,0-286,116.23-286,294,0,175.47,132.17,291.7,312.21,291.7,72.93,0,152.68-19.38,205.1-52.41V710c-54.69,38.74-120.78,65-191.43,65-94.57,0-168.64-47.85-185.73-141.29h404.5c2.28-14.82,3.42-37.61,3.42-55.84C4438.72,397.8,4315.65,303.23,4176.65,303.23ZM4030.79,538c17.09-84.31,80.9-123.06,144.71-123.06,62.67,0,124.2,38.74,134.45,123.06Z" transform="translate(-20.2 -5.83)"/><rect class="b" data-color="color-2" fill="currentColor" x="4527.93" width="137.88" height="870.54"/><polygon class="b" data-color="color-2" fill="currentColor" points="2509.87 23.35 2160.34 999.27 2298.2 999.27 2647.71 23.35 2509.87 23.35"/></symbol>    
    





<symbol id="blw-logo" viewBox="0 0 3964.7 1000.01"><title>bluelabelweb-logo-02</title><path class="a" d="M5.37,6.58H122.44V293.93l1.94,1c30-19.35,74.49-35.79,125.78-35.79C374,259.1,478.48,353.91,478.48,500c0,149-107.39,256.39-254.45,256.39-45.47,0-84.17-10.65-119-25.16L5.37,748.64ZM220.16,658.68c88,0,140.29-68.69,140.29-152.86,0-83.21-51.27-146.11-135.45-146.11-40.64,0-75.47,14.52-102.56,33.87V633.51C147.6,648,186.3,658.68,220.16,658.68Z" transform="translate(-5.37 -6.58)"/><path class="a" d="M566.53,6.58H683.6V745.75H566.53Z" transform="translate(-5.37 -6.58)"/><path class="a" d="M1124.77,692.53c-39.66,36.77-90.94,63.86-154.8,63.86-52.24,0-97.71-18.39-126.74-50.31s-42.57-75.46-42.57-144.15V269.74H917.73V542.57c0,42.57,6.77,67.73,21.28,84.17,17.42,20.31,40.64,26.13,62.89,26.13,46.44,0,91.91-26.13,123.84-61.92V269.74h117.07v476h-116.1V693.49Z" transform="translate(-5.37 -6.58)"/><path class="a" d="M1450.85,539.67c14.51,79.34,77.4,120,157.7,120,60,0,116.1-22.25,162.54-55.15v107.4c-44.5,28-112.23,44.5-174.14,44.5-152.86,0-265.1-98.69-265.1-247.68,0-150.93,113.19-249.62,242.84-249.62,118,0,222.52,80.3,222.52,233.16,0,15.48-1,34.83-2.91,47.42Zm237-81.27c-8.71-71.59-61-104.49-114.16-104.49-54.18,0-108.36,32.9-122.87,104.49Z" transform="translate(-5.37 -6.58)"/><path class="a" d="M2536.07,710.91c-29,23.23-78.37,45.48-141.26,45.48-38.7,0-78.37-8.71-110.29-31.94-32.9-24.19-53.22-61.92-53.22-109.32,0-52.25,25.16-90.94,61-115.13s84.18-32.9,133.52-32.9a399,399,0,0,1,91.91,10.65V449.69c0-29-7.74-50.31-23.22-64.82-17.41-15.48-44.5-23.23-80.3-23.23-57.09,0-106.43,19.35-143.19,42.58V297.79c37.73-21.28,92.88-38.69,160.6-38.69,61.92,0,117.07,14.5,152.87,44.5,31.93,27.09,50.31,67.73,50.31,126.74V613.2c0,26.13,9.68,44.5,32.9,44.5,8.71,0,18.39-2.9,26.13-6.77v91.92c-14.52,6.77-34.83,11.61-58.05,11.61-38.7,0-75.46-13.54-97.71-43.54Zm-18.39-156.74c-21.28-5.8-50.31-9.67-73.53-9.67-48.38,0-95.78,15.48-95.78,61.92,0,38.69,33.87,57.09,75.47,57.09,35.79,0,70.62-12.58,93.84-29Z" transform="translate(-5.37 -6.58)"/><path class="a" d="M2760.54,6.58H2877.6V293.93l1.94,1c30-19.35,74.49-35.79,125.77-35.79,123.84,0,228.33,94.82,228.33,240.91,0,149-107.39,256.39-254.45,256.39-45.47,0-84.17-10.65-119-25.16l-99.65,17.42Zm214.78,652.09c88,0,140.29-68.69,140.29-152.86,0-83.21-51.27-146.11-135.45-146.11-40.64,0-75.46,14.52-102.56,33.87V633.51C2902.76,648,2941.46,658.68,2975.32,658.68Z" transform="translate(-5.37 -6.58)"/><path class="a" d="M3410.71,539.67c14.51,79.34,77.4,120,157.7,120,60,0,116.1-22.25,162.54-55.15v107.4c-44.5,28-112.23,44.5-174.14,44.5-152.87,0-265.1-98.69-265.1-247.68,0-150.93,113.19-249.62,242.84-249.62,118,0,222.52,80.3,222.52,233.16,0,15.48-1,34.83-2.91,47.42Zm237-81.27c-8.71-71.59-61-104.49-114.16-104.49-54.18,0-108.36,32.9-122.87,104.49Z" transform="translate(-5.37 -6.58)"/><path class="a" d="M3850,6.58H3967V745.75H3850Z" transform="translate(-5.37 -6.58)"/><path class="a" d="M2285.75,26.41,1989,761.87H1871.94L2168.72,26.41Z" transform="translate(-5.37 -6.58)"/><path class="b" data-color="color-2" fill="currentColor" d="M2901.4,876.81h16.25l22.45,64.25c4.64,13.42,9.8,28.38,14.45,42.31h.52c4.64-13.42,10.06-28.64,14.71-41.54l23.48-65h10.58l23,63.47c4.9,13.42,10.58,29.41,15.22,42.83h.52c4.39-13.42,9.8-29.16,14.19-41.8l22.45-64.5h15.74l-44.64,126.94H3035l-22.45-61.92c-3.87-10.84-10.06-28.38-13.93-39.73h-.52c-3.87,11.35-10.06,28.9-14.19,40.25l-22.19,61.41H2946Z" transform="translate(-5.37 -6.58)"/><path class="b" data-color="color-2" fill="currentColor" d="M3124.84,944.41c2.58,29.93,24,48.51,53.92,48.51,17,0,31-6.19,42.57-14.71v16.51c-11.61,7.22-27.87,11.87-43.6,11.87-39,0-67.86-26.83-67.86-66.31,0-39.22,28.38-66.31,62.7-66.31,30.7,0,56.25,21.93,56.25,59.6,0,3.87-.26,7.74-.52,10.84Zm89-12.64c-.77-34.06-24.77-44.12-41.8-44.12-21.16,0-42.57,14.71-46.7,44.12Z" transform="translate(-5.37 -6.58)"/><path class="b" data-color="color-2" fill="currentColor" d="M3265.19,806.64h15.22v81.27l.52.26c9-7,22.45-14.19,40.25-14.19,34.32,0,61.15,26.58,61.15,65s-26.83,67.6-65.79,67.6c-14.45,0-26.32-3.87-36.64-8.77l-14.71,2.58Zm51.86,186.54c30.7,0,50.05-23.74,50.05-53.41s-19.09-52.12-47.73-52.12a54.79,54.79,0,0,0-39,16.25v79.73C3290.22,988.79,3303.89,993.18,3317.05,993.18Z" transform="translate(-5.37 -6.58)"/><path class="b" data-color="color-2" fill="currentColor" d="M3428.51,980.79a12.9,12.9,0,1,1-12.9,12.9A12.78,12.78,0,0,1,3428.51,980.79Z" transform="translate(-5.37 -6.58)"/><path class="b" data-color="color-2" fill="currentColor" d="M3580,997c-10.58,6.19-24.25,9.55-37.93,9.55-39.48,0-67.08-28.12-67.08-65.79,0-38.44,28.9-66.82,68.37-66.82a76,76,0,0,1,34.57,8.26v16a66.17,66.17,0,0,0-35.09-10.32c-31.48,0-52.63,23-52.63,52.89,0,30.45,21.93,51.86,52.63,51.86,14.71,0,27.61-4.64,37.15-12.13Z" transform="translate(-5.37 -6.58)"/><path class="b" data-color="color-2" fill="currentColor" d="M3672.07,874c37.93,0,65.79,28.9,65.79,66.31s-27.87,66.31-65.79,66.31-65.79-28.9-65.79-66.31S3634.15,874,3672.07,874Zm0,118.68c28.9,0,50.57-22.45,50.57-52.38s-21.67-52.38-50.57-52.38-50.57,22.45-50.57,52.38S3643.18,992.66,3672.07,992.66Z" transform="translate(-5.37 -6.58)"/><path class="b" data-color="color-2" fill="currentColor" d="M3954.85,926.61c0-13.93-2.06-23.22-8-29.67-5.42-5.93-13.93-8.77-23-8.77-17,0-33.28,9.55-45.41,22.19a111.89,111.89,0,0,1,.77,13.67v79.73H3864V926.61c0-14.71-1.81-23.22-7.74-29.67-5.68-5.93-13.67-8.77-23.22-8.77-17.29,0-32.77,9.8-44.64,21.67v93.92h-15.22V876.81h15.22V894.1l.52.26c12.38-11.35,27.87-20.38,47-20.38,16.25,0,32.25,7,39.22,23.48,15.74-15,32.51-23.48,51.34-23.48,13.42,0,24.77,4.39,32.51,12.64s11.09,18.83,11.09,37.41v79.73h-15.22Z" transform="translate(-5.37 -6.58)"/></symbol>    
    

</svg>