<svg xmlns="http://www.w3.org/2000/svg" style="display: none;"><symbol id="nc-celebrand-web-logo-hor-1" viewBox="0 0 154.505 18"><title>nc-celebrand-web-logo-hor-1</title><g><g class="nc-icon-wrapper" fill="currentColor"><path data-name="Path 47" class="cls-1" d="M4539.916 28l-2.245-3.322a.113.113 0 0 1 .093-.176h1.336a5.334 5.334 0 0 0 5.375-5.048 5.255 5.255 0 0 0-5.246-5.454h-9.41a.72.72 0 0 0-.72.72v16.559a.72.72 0 0 0 .72.72h1.561a.72.72 0 0 0 .72-.72v-6.617a.163.163 0 0 1 .16-.164 2.468 2.468 0 0 1 2.352 1.007l2.818 4.172A5.276 5.276 0 0 0 4541.8 32h1.205a.72.72 0 0 0 .72-.72v-1.56a.72.72 0 0 0-.72-.72h-1.205a2.274 2.274 0 0 1-1.884-1zm-7.816-6.68v-4.14a.18.18 0 0 1 .18-.18h6.87a2.3 2.3 0 0 1 2.325 2.094 2.253 2.253 0 0 1-2.244 2.406h-6.95a.18.18 0 0 1-.18-.18z" transform="translate(2244.861 -1078.996) translate(-4446.554 -14.004)" fill="currentColor"/><path data-name="Path 48" class="cls-1" d="M6534.4 31.309a.72.72 0 0 1-.72.72h-.924a7.6 7.6 0 0 1-7.038-4.7c-3.326-8.013-3.437-9.145-5.287-9.944a.116.116 0 0 0-.161.106v13.818a.72.72 0 0 1-.72.72h-1.56a.72.72 0 0 1-.72-.72v-16.56a.72.72 0 0 1 .72-.72h.78a6.982 6.982 0 0 1 6.467 4.318c3.233 7.788 3.479 9.577 5.97 10.418a.147.147 0 0 0 .133-.02.148.148 0 0 0 .061-.12V14.749a.72.72 0 0 1 .72-.72h1.561a.72.72 0 0 1 .72.72z" transform="translate(2244.861 -1078.996) translate(-6398.206 -14.032)" fill="currentColor"/><path data-name="Path 49" class="cls-1" d="M3552.985 32h-9.665a.72.72 0 0 1-.72-.72V14.721a.72.72 0 0 1 .72-.721h6.4a5.333 5.333 0 0 1 5.375 5.134 5.219 5.219 0 0 1-.6 2.556 5.258 5.258 0 0 1 3.849 5.24 5.325 5.325 0 0 1-5.359 5.07zm-7.2-3h7.24a2.3 2.3 0 0 0 2.324-2.1 2.252 2.252 0 0 0-2.245-2.4h-7.32a.18.18 0 0 0-.18.18v4.14a.18.18 0 0 0 .176.18zm0-7.5h3.991a2.3 2.3 0 0 0 2.324-2.1 2.252 2.252 0 0 0-2.245-2.4h-4.07a.18.18 0 0 0-.18.18v4.14a.18.18 0 0 0 .18.18z" transform="translate(2244.861 -1078.996) translate(-3478.174 -14.004)" fill="currentColor"/><path data-name="Path 50" class="cls-1" d="M7692.612 32h-4.093a.72.72 0 0 1-.72-.72V14.721a.72.72 0 0 1 .72-.721h4.262a9.009 9.009 0 0 1 9 9.217 9.11 9.11 0 0 1-9.169 8.783zm-1.633-3h1.666a6.111 6.111 0 0 0 6.134-6.1 6.006 6.006 0 0 0-6-5.9h-1.8a.18.18 0 0 0-.18.18v11.64a.181.181 0 0 0 .053.128.179.179 0 0 0 .127.052z" transform="translate(2244.861 -1078.996) translate(-7547.237 -14.004)" fill="currentColor"/><path data-name="Path 51" class="cls-1" d="M5516.172 14a7.422 7.422 0 0 0-7.1 7.472v9.8a.72.72 0 0 0 .72.72h1.561a.72.72 0 0 0 .72-.72v-3.944a.18.18 0 0 1 .18-.18h8.28a.18.18 0 0 1 .18.18v3.947a.72.72 0 0 0 .72.721h1.56a.72.72 0 0 0 .72-.72v-9.96a7.328 7.328 0 0 0-7.541-7.316zm-4.1 9.969V21.43a4.414 4.414 0 0 1 4.392-4.43 4.325 4.325 0 0 1 4.246 4.319v2.652a.18.18 0 0 1-.18.18h-8.28a.18.18 0 0 1-.18-.18z" transform="translate(2244.861 -1078.996) translate(-5408.525 -14)" fill="currentColor"/><path data-name="Path 52" class="cls-1" d="M50.7 32h-4.493a9.109 9.109 0 0 1-9.165-8.783 9.009 9.009 0 0 1 9-9.217H50.7a.72.72 0 0 1 .72.72v4.622a.72.72 0 0 1-.72.72h-1.56a.72.72 0 0 1-.72-.72V17.18a.18.18 0 0 0-.18-.18h-2.066a6.112 6.112 0 0 0-6.135 6.1 6.007 6.007 0 0 0 6 5.9h2.2a.18.18 0 0 0 .18-.18v-1.954a.72.72 0 0 1 .72-.72H50.7a.72.72 0 0 1 .72.72v4.414a.72.72 0 0 1-.72.72z" transform="translate(2244.861 -1078.996) translate(-37 -14.004)" fill="currentColor"/><path data-name="Path 53" class="cls-1" d="M1859.959 32h-10.439a.72.72 0 0 1-.72-.72V14.721a.72.72 0 0 1 .72-.721h1.56a.72.72 0 0 1 .72.72v14.1a.18.18 0 0 0 .18.18h5.52a.18.18 0 0 0 .18-.18v-1.954a.72.72 0 0 1 .72-.72h1.56a.72.72 0 0 1 .72.72v4.414a.72.72 0 0 1-.721.72z" transform="translate(2244.861 -1078.996) translate(-1815.484 -14.004)" fill="currentColor"/><path data-name="Path 54" class="cls-1" d="M2641.16 17.18v4.14a.18.18 0 0 0 .18.18h7.593a.72.72 0 0 1 .72.72v1.56a.72.72 0 0 1-.72.72h-7.593a.18.18 0 0 0-.18.18v4.14a.18.18 0 0 0 .18.18h9.342a.72.72 0 0 1 .72.72v1.56a.72.72 0 0 1-.72.72h-11.8a.72.72 0 0 1-.72-.72V14.72a.72.72 0 0 1 .72-.72h11.8a.72.72 0 0 1 .72.72v1.56a.72.72 0 0 1-.72.72h-9.342a.18.18 0 0 0-.18.18z" transform="translate(2244.861 -1078.996) translate(-2590.346 -14.004)" fill="currentColor"/><path data-name="Path 55" class="cls-1" d="M974.66 17.18v4.14a.18.18 0 0 0 .18.18h7.589a.72.72 0 0 1 .72.72v1.56a.72.72 0 0 1-.72.72h-7.59a.18.18 0 0 0-.18.18v4.14a.18.18 0 0 0 .18.18h9.34a.72.72 0 0 1 .72.72v1.56a.72.72 0 0 1-.72.72h-11.8a.72.72 0 0 1-.72-.72V14.72a.72.72 0 0 1 .72-.72h11.8a.72.72 0 0 1 .72.72v1.56a.72.72 0 0 1-.72.72h-9.34a.18.18 0 0 0-.179.18z" transform="translate(2244.861 -1078.996) translate(-954.455 -14.004)" fill="currentColor"/></g></g></symbol><symbol id="nc-celebrand-logo-2" viewBox="0 0 181.8 181.8"><title>nc-celebrand-logo-2</title><g><g class="nc-icon-wrapper" fill="currentColor"><title>celebrand-logo-2</title><path class="cls-1" d="M143.9 100.86l-7.74-9.22a4.24 4.24 0 0 0-3.69-1.49l-1.78.18a.43.43 0 0 0-.38.47l1.69 16a1.29 1.29 0 0 1-1.14 1.41l-6.71.71a1.29 1.29 0 0 1-1.41-1.15l-4.43-42.16a1.28 1.28 0 0 1 1.14-1.4l25.19-2.65A14.16 14.16 0 0 1 155 64.74a13.25 13.25 0 0 1 4.87 9.12 13.5 13.5 0 0 1-11 14.52c-2.25.41-2.38 1-1 2.77.75 1 3.13 3.72 3.13 3.72a4.27 4.27 0 0 0 3.7 1.5l27-2.85V0h-60.62L126 47a.43.43 0 0 0 .47.39l18.55-2a.42.42 0 0 0 .38-.46l-.53-5a1.29 1.29 0 0 1 1.13-1.45l6.71-.7a1.27 1.27 0 0 1 1.41 1.12l1.41 13.46a1.29 1.29 0 0 1-1.14 1.41L119 57.51a1.29 1.29 0 0 1-1.41-1.14L111.72 0H0v151.82l25.54-2.68-.3-2.8a20.13 20.13 0 0 1 17.91-22.13l2.67-.28A20.13 20.13 0 0 1 68 141.85l2.46 23.43a1.28 1.28 0 0 1-1.14 1.4l-6.7.72a1.29 1.29 0 0 1-1.41-1.14L60 155.32a.42.42 0 0 0-.47-.37l-14.08 1.47-9.67 1L37 168.79a1.29 1.29 0 0 1-1.14 1.41l-6.71.7a1.28 1.28 0 0 1-1.4-1.14l-1.2-11.36L0 161.19v20.61h181.8v-78.92l-26.09 2.74a13.54 13.54 0 0 1-11.81-4.76zM34.22 21.22l.48-.06 16.66-1.75a1.29 1.29 0 0 1 1.41 1.14l1.48 13.95a1.29 1.29 0 0 1-1.14 1.41l-6.71.71a1.29 1.29 0 0 1-1.4-1.15l-.58-5.53a.43.43 0 0 0-.47-.38l-8 .84a13.44 13.44 0 0 0-12.05 14A13.18 13.18 0 0 0 38 56.66h.48l8.25-.87a.43.43 0 0 0 .38-.47l-.54-5a1.29 1.29 0 0 1 1.14-1.41l6.71-.71a1.29 1.29 0 0 1 1.41 1.14l1.41 13.46a1.29 1.29 0 0 1-1.14 1.41l-16.26 1.61C27.56 67.11 16.3 58.4 14.76 46.4a22.51 22.51 0 0 1 19.46-25.18zm29 94.14l-38 4a1.29 1.29 0 0 1-1.41-1.14L19.38 76a1.29 1.29 0 0 1 1.14-1.41l38-4a1.29 1.29 0 0 1 1.41 1.14l.71 6.71a1.29 1.29 0 0 1-1.14 1.46L29.9 83a.43.43 0 0 0-.38.47l.8 7.61a.43.43 0 0 0 .47.38l19.54-2.05a1.29 1.29 0 0 1 1.41 1.14l.71 6.71a1.29 1.29 0 0 1-1.14 1.41l-19.54 2.05a.43.43 0 0 0-.38.47l.8 7.61a.43.43 0 0 0 .47.38l29.59-3.11a1.29 1.29 0 0 1 1.41 1.14l.7 6.73a1.29 1.29 0 0 1-1.15 1.42zm1-53.37l-4.48-42.17a1.29 1.29 0 0 1 1.14-1.41l43.94-4.61a1.29 1.29 0 0 1 1.41 1.14l.71 6.71a1.29 1.29 0 0 1-1.14 1.41l-35.52 3.73a.43.43 0 0 0-.38.47l.8 7.61a.43.43 0 0 0 .47.38l23.71-2.49a1.29 1.29 0 0 1 1.41 1.14l.71 6.71A1.29 1.29 0 0 1 95.85 42l-23.71 2.51a.43.43 0 0 0-.38.47l.8 7.61A.43.43 0 0 0 73 53l35.52-3.73a1.29 1.29 0 0 1 1.48 1.11l.71 6.71a1.29 1.29 0 0 1-1.14 1.41l-43.98 4.63A1.29 1.29 0 0 1 64.18 62zm7.44 51.19L67.2 71a1.28 1.28 0 0 1 1.14-1.4l19-2A13.57 13.57 0 0 1 102.51 83l-.17 1.21 1.2.23a13.57 13.57 0 0 1 11 12.58 13.72 13.72 0 0 1-12.46 14.29l-29 3.05a1.29 1.29 0 0 1-1.46-1.18zm50.24 48l-3.36.36a20.26 20.26 0 0 1-19.44-9.71c-11.78-19.65-10.2-18.16-15.2-21.44a.43.43 0 0 0-.66.4l5.37 51H79.2L73 122.38a1.29 1.29 0 0 1 1.1-1.38l3.49-.37A20.28 20.28 0 0 1 97 130.3c11.7 19.52 10.24 18.16 15 21.39a.43.43 0 0 0 .67-.4l-3.44-32.74a1.29 1.29 0 0 1 1.14-1.41l6.71-.71a1.29 1.29 0 0 1 1.41 1.15l4.51 42.16a1.29 1.29 0 0 1-1.14 1.42zm47.67-27.08c1 12.06-8.22 22.93-20.51 24.22l-17.65 1.85A1.28 1.28 0 0 1 130 159l-4.43-42.16a1.29 1.29 0 0 1 1.14-1.41l18.09-1.9h.5a22.5 22.5 0 0 1 24.23 20.55z" fill="currentColor"/><path class="cls-1" d="M145.74 122.8l-9.67 1a.44.44 0 0 0-.38.48l2.67 25.33a.42.42 0 0 0 .47.37l9.38-1a13.44 13.44 0 0 0 12.05-14v-.46a13.19 13.19 0 0 0-14.52-11.72z" fill="currentColor"/><path class="cls-1" d="M150.56 74.19a4.37 4.37 0 0 0-4.75-3.36l-17 1.79a.42.42 0 0 0-.37.47l.8 7.61a.44.44 0 0 0 .48.38l17-1.79a4.52 4.52 0 0 0 1.13-.26 4.26 4.26 0 0 0 2.71-4.84z" fill="currentColor"/><path class="cls-1" d="M79.6 95.72a.43.43 0 0 0-.38.47l.8 7.61a.43.43 0 0 0 .47.38L101.3 102a4.36 4.36 0 0 0 3.95-4.26 4.27 4.27 0 0 0-4.79-4.2L79.6 95.72z" fill="currentColor"/><path class="cls-1" d="M78.16 86.06a.43.43 0 0 0 .47.38l10.77-1.13A4.35 4.35 0 0 0 93.33 81a4.24 4.24 0 0 0-3.62-4.18 4.45 4.45 0 0 0-1.16 0L77.74 78a.43.43 0 0 0-.38.47l.8 7.61z" fill="currentColor"/><path class="cls-1" d="M44.47 147.14l14.08-1.47a.42.42 0 0 0 .38-.46l-.25-2.38a10.81 10.81 0 0 0-11.88-9.62l-2.67.29a10.81 10.81 0 0 0-9.62 11.86l.29 2.8z" fill="currentColor"/><path class="cls-1" fill="currentColor" d="M181.8 93.52L181.8 93.52 181.8 102.88 181.8 102.88 181.8 93.52z"/></g></g></symbol><symbol id="nc-celebrand-logo-txt" viewBox="0 0 181.8 181.8"><title>nc-celebrand-logo-txt</title><g><g class="nc-icon-wrapper" fill="currentColor"><title>celebrand-logo-txt</title><path data-name="Path 94" class="cls-1" d="M65.59 63.13A1.29 1.29 0 0 1 64.18 62l-4.44-42.18a1.29 1.29 0 0 1 1.14-1.41l43.94-4.61a1.29 1.29 0 0 1 1.41 1.14l.71 6.71a1.29 1.29 0 0 1-1.14 1.41l-35.52 3.73a.43.43 0 0 0-.38.47l.8 7.61a.43.43 0 0 0 .47.38l23.71-2.49a1.29 1.29 0 0 1 1.41 1.14l.71 6.71A1.29 1.29 0 0 1 95.85 42l-23.71 2.51a.43.43 0 0 0-.38.47l.8 7.61A.43.43 0 0 0 73 53l35.52-3.73a1.29 1.29 0 0 1 1.48 1.11l.71 6.71a1.29 1.29 0 0 1-1.14 1.41z" fill="currentColor"/><path data-name="Path 95" class="cls-1" d="M39.84 65.82C27.56 67.11 16.3 58.4 14.76 46.4a22.51 22.51 0 0 1 19.46-25.18l.48-.06 16.66-1.75a1.29 1.29 0 0 1 1.41 1.14l1.47 14a1.29 1.29 0 0 1-1.14 1.41l-6.71.71a1.29 1.29 0 0 1-1.39-1.2l-.58-5.53a.43.43 0 0 0-.47-.38l-8 .84a13.44 13.44 0 0 0-12.05 14A13.18 13.18 0 0 0 38 56.66h.48l8.25-.87a.43.43 0 0 0 .38-.47l-.54-5a1.29 1.29 0 0 1 1.14-1.41l6.71-.71a1.29 1.29 0 0 1 1.41 1.14l1.41 13.46a1.29 1.29 0 0 1-1.14 1.41z" fill="currentColor"/><path data-name="Path 96" class="cls-1" d="M154.43 53.79L119 57.51a1.29 1.29 0 0 1-1.41-1.14L111.72 0h9.36L126 47a.43.43 0 0 0 .47.38l18.55-2a.42.42 0 0 0 .38-.46l-.53-5a1.29 1.29 0 0 1 1.13-1.44l6.71-.7a1.27 1.27 0 0 1 1.41 1.12l1.41 13.46a1.29 1.29 0 0 1-1.1 1.43z" fill="currentColor"/><path data-name="Path 97" class="cls-1" d="M154.75 96.36a4.27 4.27 0 0 1-3.7-1.5s-2.38-2.77-3.12-3.72c-1.39-1.78-1.26-2.35 1-2.77a13.5 13.5 0 0 0 11-14.52 13.25 13.25 0 0 0-4.93-9.11 14.16 14.16 0 0 0-10.4-3.16l-25.19 2.65a1.28 1.28 0 0 0-1.14 1.4l4.43 42.16a1.29 1.29 0 0 0 1.41 1.15l6.71-.71a1.29 1.29 0 0 0 1.14-1.41l-1.69-16a.43.43 0 0 1 .38-.47l1.78-.18a4.24 4.24 0 0 1 3.69 1.49l7.74 9.22a13.54 13.54 0 0 0 11.8 4.76l26.1-2.74v-9.38zm-25-15.29a.44.44 0 0 1-.48-.38l-.8-7.61a.42.42 0 0 1 .37-.47l17-1.79a4.37 4.37 0 0 1 4.75 3.36 4.26 4.26 0 0 1-2.72 4.82 4.52 4.52 0 0 1-1.13.26z" fill="currentColor"/><path data-name="Path 98" class="cls-1" d="M121.86 161.16l-3.36.36a20.26 20.26 0 0 1-19.44-9.71c-11.78-19.65-10.2-18.16-15.2-21.44a.43.43 0 0 0-.66.4l5.37 51H79.2L73 122.38a1.29 1.29 0 0 1 1.1-1.38l3.49-.37A20.28 20.28 0 0 1 97 130.3c11.7 19.52 10.24 18.16 15 21.39a.43.43 0 0 0 .67-.4l-3.44-32.74a1.29 1.29 0 0 1 1.14-1.41l6.71-.71a1.29 1.29 0 0 1 1.41 1.15l4.51 42.16a1.29 1.29 0 0 1-1.14 1.42z" fill="currentColor"/><path data-name="Path 99" class="cls-1" d="M114.53 97a13.57 13.57 0 0 0-11-12.58l-1.2-.23.17-1.21A13.57 13.57 0 0 0 87.33 67.6l-19 2A1.28 1.28 0 0 0 67.2 71l4.42 42.16a1.29 1.29 0 0 0 1.38 1.16l29-3.05A13.72 13.72 0 0 0 114.53 97zM78.16 86.06l-.8-7.61a.43.43 0 0 1 .38-.47l10.81-1.14a4.44 4.44 0 0 1 1.16 0A4.24 4.24 0 0 1 93.33 81a4.35 4.35 0 0 1-3.94 4.27l-10.76 1.17a.43.43 0 0 1-.47-.38zM101.3 102l-20.81 2.19a.43.43 0 0 1-.47-.38l-.8-7.61a.43.43 0 0 1 .38-.47l20.85-2.19a4.27 4.27 0 0 1 4.79 4.2 4.36 4.36 0 0 1-3.94 4.26z" fill="currentColor"/><path data-name="Path 100" class="cls-1" d="M169.53 134.08a22.5 22.5 0 0 0-24.26-20.59h-.5l-18.09 1.9a1.29 1.29 0 0 0-1.14 1.41L130 159a1.28 1.28 0 0 0 1.41 1.14L149 158.3c12.32-1.3 21.51-12.16 20.53-24.22zM148.21 149l-9.38 1a.42.42 0 0 1-.47-.37l-2.67-25.33a.44.44 0 0 1 .38-.48l9.67-1a13.19 13.19 0 0 1 14.48 11.76v.46a13.44 13.44 0 0 1-12.05 14z" fill="currentColor"/><path data-name="Path 101" class="cls-1" d="M25.22 119.34a1.29 1.29 0 0 1-1.41-1.14L19.38 76a1.29 1.29 0 0 1 1.14-1.41l38-4a1.29 1.29 0 0 1 1.41 1.14l.71 6.71a1.29 1.29 0 0 1-1.14 1.46L29.9 83a.43.43 0 0 0-.38.47l.8 7.61a.43.43 0 0 0 .47.38l19.54-2.05a1.29 1.29 0 0 1 1.41 1.14l.71 6.71a1.29 1.29 0 0 1-1.14 1.41l-19.54 2.05a.43.43 0 0 0-.38.47l.8 7.61a.43.43 0 0 0 .47.38l29.59-3.11a1.29 1.29 0 0 1 1.41 1.14l.7 6.73a1.29 1.29 0 0 1-1.14 1.41z" fill="currentColor"/><path data-name="Path 102" class="cls-1" d="M70.41 165.28L68 141.85a20.13 20.13 0 0 0-22.12-17.91l-2.67.28a20.13 20.13 0 0 0-17.91 22.13l.3 2.8L0 151.82v9.37l26.52-2.79 1.2 11.36a1.28 1.28 0 0 0 1.4 1.14l6.71-.7a1.29 1.29 0 0 0 1.17-1.41l-1.2-11.36 9.67-1 14.08-1.47a.42.42 0 0 1 .47.37l1.15 10.94a1.29 1.29 0 0 0 1.41 1.14l6.7-.72a1.28 1.28 0 0 0 1.14-1.4zm-11.85-19.62l-14.08 1.47-9.67 1-.29-2.8a10.81 10.81 0 0 1 9.62-11.86l2.67-.29a10.81 10.81 0 0 1 11.88 9.62l.25 2.38a.42.42 0 0 1-.38.46z" fill="currentColor"/></g></g></symbol><symbol id="nc-logo-linkedin" viewBox="0 0 24 24"><title>nc-logo-linkedin</title><g><g class="nc-icon-wrapper"><path fill="currentColor" d="M23,0H1C0.4,0,0,0.4,0,1v22c0,0.6,0.4,1,1,1h22c0.6,0,1-0.4,1-1V1C24,0.4,23.6,0,23,0z M7.1,20.5H3.6V9h3.6 V20.5z M5.3,7.4c-1.1,0-2.1-0.9-2.1-2.1c0-1.1,0.9-2.1,2.1-2.1c1.1,0,2.1,0.9,2.1,2.1C7.4,6.5,6.5,7.4,5.3,7.4z M20.5,20.5h-3.6 v-5.6c0-1.3,0-3-1.8-3c-1.9,0-2.1,1.4-2.1,2.9v5.7H9.4V9h3.4v1.6h0c0.5-0.9,1.6-1.8,3.4-1.8c3.6,0,4.3,2.4,4.3,5.5V20.5z"/></g></g></symbol><symbol id="nc-logo-dribbble" viewBox="0 0 24 24"><title>nc-logo-dribbble</title><g><g class="nc-icon-wrapper"><path fill-rule="evenodd" clip-rule="evenodd" fill="currentColor" d="M12,24C5.4,24,0,18.6,0,12S5.4,0,12,0s12,5.4,12,12S18.6,24,12,24z M22.1,13.6c-0.4-0.1-3.2-1-6.4-0.4c1.3,3.7,1.9,6.7,2,7.3C20,19,21.7,16.5,22.1,13.6z M16,21.5c-0.2-0.9-0.7-4-2.2-7.8 c0,0,0,0-0.1,0c-5.8,2-7.9,6-8,6.4c1.7,1.4,3.9,2.2,6.3,2.2C13.4,22.3,14.8,22,16,21.5z M4.4,18.9c0.2-0.4,3-5.1,8.3-6.8 c0.1,0,0.3-0.1,0.4-0.1c-0.3-0.6-0.5-1.2-0.8-1.7c-5.1,1.5-10.1,1.5-10.5,1.5c0,0.1,0,0.2,0,0.3C1.8,14.6,2.7,17.1,4.4,18.9z M2,9.9 c0.5,0,4.7,0,9.5-1.2c-1.7-3-3.5-5.6-3.8-5.9C4.8,4.1,2.6,6.7,2,9.9z M9.6,2.1c0.3,0.4,2.1,2.9,3.8,6c3.6-1.4,5.2-3.4,5.4-3.7 C17,2.7,14.6,1.8,12,1.8C11.2,1.8,10.4,1.9,9.6,2.1z M19.9,5.5c-0.2,0.3-1.9,2.5-5.7,4c0.2,0.5,0.5,1,0.7,1.5 c0.1,0.2,0.1,0.4,0.2,0.5c3.4-0.4,6.8,0.3,7.1,0.3C22.2,9.5,21.4,7.3,19.9,5.5z"/></g></g></symbol><symbol id="nc-logo-behance" viewBox="0 0 24 24"><title>nc-logo-behance</title><g><g class="nc-icon-wrapper"><path fill="currentColor" d="M9.68586,11.19554c0,0,2.27112-0.16872,2.27112-2.83211c0-2.66344-1.85819-3.96321-4.2119-3.96321H3.41265 H3.28537H0v14.88431h3.28537h0.12728h4.33242c0,0,4.72808,0.14903,4.72808-4.39321 C12.47315,14.89132,12.67959,11.19554,9.68586,11.19554z M3.41265,7.04557h3.77494h0.55749c0,0,1.05295,0,1.05295,1.54851 s-0.61941,1.77304-1.32137,1.77304H3.41265V7.04557z M7.54539,16.63918H3.41265v-3.97771h4.33242 c0,0,1.56913-0.02061,1.56913,2.04398C9.3142,16.42691,8.16648,16.62191,7.54539,16.63918z"/> <path fill="currentColor" d="M18.77907,8.1871c-5.72379,0-5.71862,5.71865-5.71862,5.71865s-0.3928,5.68981,5.71878,5.68981 c0,0,5.09309,0.2909,5.09309-3.95808h-2.61935c0,0,0.08726,1.60046-2.38647,1.60046c0,0-2.61939,0.17519-2.61939-2.58985h7.71248 C23.95959,14.64808,24.80338,8.1871,18.77907,8.1871z M21.10728,12.66146h-4.88934c0,0,0.32016-2.29435,2.61935-2.29435 C21.13652,10.36712,21.10728,12.66146,21.10728,12.66146z"/> <rect data-color="color-2" x="16" y="5" width="6" height="2"/></g></g></symbol><symbol id="nc-logo-twitter" viewBox="0 0 24 24"><title>nc-logo-twitter</title><g><g class="nc-icon-wrapper"><path fill="currentColor" d="M24,4.6c-0.9,0.4-1.8,0.7-2.8,0.8c1-0.6,1.8-1.6,2.2-2.7c-1,0.6-2,1-3.1,1.2c-0.9-1-2.2-1.6-3.6-1.6 c-2.7,0-4.9,2.2-4.9,4.9c0,0.4,0,0.8,0.1,1.1C7.7,8.1,4.1,6.1,1.7,3.1C1.2,3.9,1,4.7,1,5.6c0,1.7,0.9,3.2,2.2,4.1 C2.4,9.7,1.6,9.5,1,9.1c0,0,0,0,0,0.1c0,2.4,1.7,4.4,3.9,4.8c-0.4,0.1-0.8,0.2-1.3,0.2c-0.3,0-0.6,0-0.9-0.1c0.6,2,2.4,3.4,4.6,3.4 c-1.7,1.3-3.8,2.1-6.1,2.1c-0.4,0-0.8,0-1.2-0.1c2.2,1.4,4.8,2.2,7.5,2.2c9.1,0,14-7.5,14-14c0-0.2,0-0.4,0-0.6 C22.5,6.4,23.3,5.5,24,4.6z"/></g></g></symbol><symbol id="nc-logo-instagram" viewBox="0 0 24 24"><title>nc-logo-instagram</title><g><g class="nc-icon-wrapper"><path fill="currentColor" d="M12,2.162c3.204,0,3.584,0.012,4.849,0.07c1.366,0.062,2.633,0.336,3.608,1.311 c0.975,0.975,1.249,2.242,1.311,3.608c0.058,1.265,0.07,1.645,0.07,4.849s-0.012,3.584-0.07,4.849 c-0.062,1.366-0.336,2.633-1.311,3.608c-0.975,0.975-2.242,1.249-3.608,1.311c-1.265,0.058-1.645,0.07-4.849,0.07 s-3.584-0.012-4.849-0.07c-1.366-0.062-2.633-0.336-3.608-1.311c-0.975-0.975-1.249-2.242-1.311-3.608 c-0.058-1.265-0.07-1.645-0.07-4.849s0.012-3.584,0.07-4.849c0.062-1.366,0.336-2.633,1.311-3.608 c0.975-0.975,2.242-1.249,3.608-1.311C8.416,2.174,8.796,2.162,12,2.162 M12,0C8.741,0,8.332,0.014,7.052,0.072 c-1.95,0.089-3.663,0.567-5.038,1.942C0.639,3.389,0.161,5.102,0.072,7.052C0.014,8.332,0,8.741,0,12 c0,3.259,0.014,3.668,0.072,4.948c0.089,1.95,0.567,3.663,1.942,5.038c1.375,1.375,3.088,1.853,5.038,1.942 C8.332,23.986,8.741,24,12,24s3.668-0.014,4.948-0.072c1.95-0.089,3.663-0.567,5.038-1.942c1.375-1.375,1.853-3.088,1.942-5.038 C23.986,15.668,24,15.259,24,12s-0.014-3.668-0.072-4.948c-0.089-1.95-0.567-3.663-1.942-5.038 c-1.375-1.375-3.088-1.853-5.038-1.942C15.668,0.014,15.259,0,12,0L12,0z"/> <path data-color="color-2" d="M12,5.838c-3.403,0-6.162,2.759-6.162,6.162S8.597,18.162,12,18.162s6.162-2.759,6.162-6.162 S15.403,5.838,12,5.838z M12,16c-2.209,0-4-1.791-4-4s1.791-4,4-4s4,1.791,4,4S14.209,16,12,16z"/> <circle data-color="color-2" cx="18.406" cy="5.594" r="1.44"/></g></g></symbol><symbol id="nc-menu-right" viewBox="0 0 32 32"><title>nc-menu-right</title><g><g class="nc-icon-wrapper"><path data-color="color-2" d="M30,17H2c-0.553,0-1-0.447-1-1s0.447-1,1-1h28c0.553,0,1,0.447,1,1S30.553,17,30,17z"/> <path fill="currentColor" d="M30,8H2C1.447,8,1,7.553,1,7s0.447-1,1-1h28c0.553,0,1,0.447,1,1S30.553,8,30,8z"/> <path fill="currentColor" d="M30,26H16c-0.553,0-1-0.447-1-1s0.447-1,1-1h14c0.553,0,1,0.447,1,1S30.553,26,30,26z"/></g></g></symbol></svg>