<svg xmlns="http://www.w3.org/2000/svg" viewBox="3220.1 3434.1 181.799 181.799">
  <defs>
    <style>
      .cls-1 {
        fill: #ffda30;
      }

      .cls-2 {
        fill: #323031;
      }
    </style>
  </defs>
  <g id="celebrand-web-logo-1" transform="translate(3220.1 3434.1)">
    <rect id="Rectangle_94" data-name="Rectangle 94" class="cls-1" width="181.799" height="181.799"/>
    <path id="Path_94" data-name="Path 94" class="cls-2" d="M783.82,138.149a1.291,1.291,0,0,1-1.41-1.141l-4.438-42.166a1.291,1.291,0,0,1,1.141-1.411l43.936-4.61a1.291,1.291,0,0,1,1.411,1.141l.706,6.711a1.291,1.291,0,0,1-1.141,1.411l-35.515,3.726a.428.428,0,0,0-.38.47l.8,7.611a.428.428,0,0,0,.474.382l23.706-2.491a1.291,1.291,0,0,1,1.411,1.141l.706,6.711a1.291,1.291,0,0,1-1.141,1.411l-23.713,2.491a.428.428,0,0,0-.38.47l.8,7.611a.428.428,0,0,0,.47.38l35.523-3.734a1.291,1.291,0,0,1,1.411,1.141l.706,6.711a1.291,1.291,0,0,1-1.141,1.411Z" transform="translate(-718.232 -75.021)"/>
    <path id="Path_95" data-name="Path 95" class="cls-2" d="M558.313,165.664c-12.285,1.291-23.54-7.421-25.089-19.423A22.507,22.507,0,0,1,553.171,121l16.662-1.752a1.291,1.291,0,0,1,1.411,1.141l1.475,13.95a1.291,1.291,0,0,1-1.141,1.411l-6.712.706a1.291,1.291,0,0,1-1.41-1.141l-.583-5.531a.428.428,0,0,0-.47-.38l-7.958.837a13.436,13.436,0,0,0-12.051,13.994,13.178,13.178,0,0,0,14.513,12.223l8.249-.867a.428.428,0,0,0,.38-.47L565,150.08a1.291,1.291,0,0,1,1.141-1.411l6.711-.706a1.291,1.291,0,0,1,1.411,1.141l1.414,13.46a1.291,1.291,0,0,1-1.141,1.411Z" transform="translate(-518.468 -99.84)"/>
    <path id="Path_96" data-name="Path 96" class="cls-2" d="M1102.62,67.791l-35.379,3.719a1.291,1.291,0,0,1-1.409-1.141L1059.91,14h9.363l4.938,46.977a.431.431,0,0,0,.47.385l18.554-1.954a.424.424,0,0,0,.38-.468l-.53-5.045a1.291,1.291,0,0,1,1.142-1.414l6.713-.7a1.274,1.274,0,0,1,1.409,1.141l1.414,13.46A1.291,1.291,0,0,1,1102.62,67.791Z" transform="translate(-948.192 -14)"/>
    <path id="Path_97" data-name="Path 97" class="cls-2" d="M1132.05,382.473a4.268,4.268,0,0,1-3.7-1.5s-2.377-2.766-3.125-3.719c-1.39-1.776-1.259-2.353.992-2.766a13.5,13.5,0,0,0,10.991-14.52,13.249,13.249,0,0,0-4.866-9.119,14.156,14.156,0,0,0-10.4-3.16l-25.19,2.65a1.278,1.278,0,0,0-1.141,1.409l4.425,42.164a1.291,1.291,0,0,0,1.414,1.147l6.713-.706a1.291,1.291,0,0,0,1.141-1.414l-1.687-16.023a.431.431,0,0,1,.38-.47l1.776-.184a4.24,4.24,0,0,1,3.688,1.492l7.744,9.219a13.543,13.543,0,0,0,11.8,4.764l26.1-2.745v-9.365Zm-25.024-15.292a.437.437,0,0,1-.476-.38l-.8-7.611a.424.424,0,0,1,.38-.47l16.98-1.788a4.37,4.37,0,0,1,4.748,3.363,4.265,4.265,0,0,1-2.687,4.844,4.518,4.518,0,0,1-1.128.256Z" transform="translate(-977.301 -286.109)"/>
    <path id="Path_98" data-name="Path 98" class="cls-2" d="M898.561,690.218l-3.358.358a20.26,20.26,0,0,1-19.439-9.708c-11.775-19.648-10.195-18.162-15.2-21.436a.428.428,0,0,0-.66.4l5.366,51.022H855.9l-6.243-59.417a1.291,1.291,0,0,1,1.141-1.414l3.494-.369a20.282,20.282,0,0,1,19.445,9.708c11.7,19.522,10.237,18.162,15.044,21.388a.428.428,0,0,0,.666-.4l-3.443-32.741a1.291,1.291,0,0,1,1.141-1.409l6.713-.706a1.29,1.29,0,0,1,1.414,1.147l4.425,42.159A1.291,1.291,0,0,1,898.561,690.218Z" transform="translate(-776.702 -529.058)"/>
    <path id="Path_99" data-name="Path 99" class="cls-2" d="M865.745,409.688a13.574,13.574,0,0,0-10.991-12.577l-1.195-.232.166-1.206a13.575,13.575,0,0,0-15.186-15.364l-18.991,2a1.278,1.278,0,0,0-1.141,1.409l4.425,42.164a1.291,1.291,0,0,0,1.409,1.147l29.04-3.053A13.723,13.723,0,0,0,865.745,409.688Zm-36.378-10.919-.8-7.611a.428.428,0,0,1,.38-.47l10.812-1.141a4.444,4.444,0,0,1,1.158.018,4.241,4.241,0,0,1,3.625,4.182,4.351,4.351,0,0,1-3.938,4.267l-10.766,1.134a.428.428,0,0,1-.468-.38Zm23.142,15.916L831.7,416.879a.426.426,0,0,1-.47-.38l-.8-7.611a.426.426,0,0,1,.38-.468l20.853-2.192a4.272,4.272,0,0,1,4.794,4.195,4.363,4.363,0,0,1-3.948,4.261Z" transform="translate(-751.211 -312.704)"/>
    <path id="Path_100" data-name="Path 100" class="cls-2" d="M1178.842,649.809a22.5,22.5,0,0,0-24.756-20.544l-18.092,1.9a1.291,1.291,0,0,0-1.141,1.409l4.425,42.164a1.28,1.28,0,0,0,1.409,1.141l17.645-1.853C1170.626,672.737,1179.823,661.869,1178.842,649.809Zm-21.323,14.935-9.381.986a.424.424,0,0,1-.47-.38L1145,640.017a.437.437,0,0,1,.38-.476l9.673-1.016a13.19,13.19,0,0,1,14.52,12.221,13.436,13.436,0,0,1-12.051,14Z" transform="translate(-1009.311 -515.724)"/>
    <path id="Path_101" data-name="Path 101" class="cls-2" d="M564.9,445.771a1.291,1.291,0,0,1-1.411-1.141l-4.425-42.164a1.291,1.291,0,0,1,1.141-1.411l38-3.994a1.291,1.291,0,0,1,1.411,1.141l.706,6.711a1.291,1.291,0,0,1-1.141,1.41l-29.6,3.111a.428.428,0,0,0-.38.47l.8,7.606a.428.428,0,0,0,.47.38l19.544-2.054a1.291,1.291,0,0,1,1.41,1.141l.706,6.711a1.291,1.291,0,0,1-1.141,1.41l-19.544,2.054a.428.428,0,0,0-.38.47l.8,7.611a.428.428,0,0,0,.47.38l29.589-3.11a1.29,1.29,0,0,1,1.41,1.141l.7,6.728a1.291,1.291,0,0,1-1.141,1.411Z" transform="translate(-539.685 -326.427)"/>
    <path id="Path_102" data-name="Path 102" class="cls-2" d="M524.415,727.031l-2.46-23.426a20.127,20.127,0,0,0-22.126-17.913l-2.674.28A20.131,20.131,0,0,0,479.243,708.1l.3,2.8L454,713.575v9.368l26.521-2.786,1.195,11.36a1.276,1.276,0,0,0,1.416,1.14l6.713-.7a1.291,1.291,0,0,0,1.141-1.414l-1.195-11.36,9.667-1.016,14.081-1.475a.424.424,0,0,1,.47.38l1.152,10.937a1.291,1.291,0,0,0,1.409,1.141l6.7-.715a1.278,1.278,0,0,0,1.141-1.4Zm-11.859-19.616-14.081,1.475-9.667,1.016-.291-2.8a10.807,10.807,0,0,1,9.621-11.861l2.674-.286a10.807,10.807,0,0,1,11.876,9.619l.249,2.377a.419.419,0,0,1-.38.459Z" transform="translate(-454 -561.754)"/>
  </g>
</svg>
