<svg xmlns="http://www.w3.org/2000/svg" viewBox="2244.9 -1079 154.505 18">
  <defs>
    <style>
      .cls-1 {
        fill: #231f20;
      }
    </style>
  </defs>
  <g id="celebrand-web-logo-hor-1" transform="translate(2244.861 -1078.996)">
    <path id="Path_47" data-name="Path 47" class="cls-1" d="M4539.916,28l-2.245-3.322a.113.113,0,0,1,.093-.176h1.336a5.334,5.334,0,0,0,5.375-5.048A5.255,5.255,0,0,0,4539.229,14h-9.41a.72.72,0,0,0-.72.72V31.279a.72.72,0,0,0,.72.72h1.561a.72.72,0,0,0,.72-.72V24.662a.163.163,0,0,1,.16-.164,2.468,2.468,0,0,1,2.352,1.007l2.818,4.172A5.276,5.276,0,0,0,4541.8,32h1.205a.72.72,0,0,0,.72-.72v-1.56a.72.72,0,0,0-.72-.72H4541.8A2.274,2.274,0,0,1,4539.916,28ZM4532.1,21.32V17.18a.18.18,0,0,1,.18-.18h6.87a2.3,2.3,0,0,1,2.325,2.094,2.253,2.253,0,0,1-2.244,2.406h-6.95a.18.18,0,0,1-.18-.18Z" transform="translate(-4446.554 -14.004)"/>
    <path id="Path_48" data-name="Path 48" class="cls-1" d="M6534.4,31.309a.72.72,0,0,1-.72.72h-.924a7.6,7.6,0,0,1-7.038-4.7c-3.326-8.013-3.437-9.145-5.287-9.944a.116.116,0,0,0-.161.106V31.309a.72.72,0,0,1-.72.72h-1.56a.72.72,0,0,1-.72-.72V14.749a.72.72,0,0,1,.72-.72h.78a6.982,6.982,0,0,1,6.467,4.318c3.233,7.788,3.479,9.577,5.97,10.418a.147.147,0,0,0,.133-.02.148.148,0,0,0,.061-.12V14.749a.72.72,0,0,1,.72-.72h1.561a.72.72,0,0,1,.72.72Z" transform="translate(-6398.206 -14.032)"/>
    <path id="Path_49" data-name="Path 49" class="cls-1" d="M3552.985,32h-9.665a.72.72,0,0,1-.72-.72V14.721a.72.72,0,0,1,.72-.721h6.4a5.333,5.333,0,0,1,5.375,5.134,5.219,5.219,0,0,1-.6,2.556,5.258,5.258,0,0,1,3.849,5.24A5.325,5.325,0,0,1,3552.985,32Zm-7.2-3h7.24a2.3,2.3,0,0,0,2.324-2.1,2.252,2.252,0,0,0-2.245-2.4h-7.32a.18.18,0,0,0-.18.18v4.14A.18.18,0,0,0,3545.78,29Zm0-7.5h3.991a2.3,2.3,0,0,0,2.324-2.1,2.252,2.252,0,0,0-2.245-2.4h-4.07a.18.18,0,0,0-.18.18v4.14a.18.18,0,0,0,.18.18Z" transform="translate(-3478.174 -14.004)"/>
    <path id="Path_50" data-name="Path 50" class="cls-1" d="M7692.612,32h-4.093a.72.72,0,0,1-.72-.72V14.721a.72.72,0,0,1,.72-.721h4.262a9.009,9.009,0,0,1,9,9.217A9.11,9.11,0,0,1,7692.612,32Zm-1.633-3h1.666a6.111,6.111,0,0,0,6.134-6.1,6.006,6.006,0,0,0-6-5.9h-1.8a.18.18,0,0,0-.18.18V28.82a.181.181,0,0,0,.053.128A.179.179,0,0,0,7690.979,29Z" transform="translate(-7547.237 -14.004)"/>
    <path id="Path_51" data-name="Path 51" class="cls-1" d="M5516.172,14a7.422,7.422,0,0,0-7.1,7.472v9.8a.72.72,0,0,0,.72.72h1.561a.72.72,0,0,0,.72-.72V27.328a.18.18,0,0,1,.18-.18h8.28a.18.18,0,0,1,.18.18v3.947a.72.72,0,0,0,.72.721h1.56a.72.72,0,0,0,.72-.72v-9.96A7.328,7.328,0,0,0,5516.172,14Zm-4.1,9.969V21.43A4.414,4.414,0,0,1,5516.464,17a4.325,4.325,0,0,1,4.246,4.319v2.652a.18.18,0,0,1-.18.18h-8.28a.18.18,0,0,1-.18-.18Z" transform="translate(-5408.525 -14)"/>
    <path id="Path_52" data-name="Path 52" class="cls-1" d="M50.7,32H46.207a9.109,9.109,0,0,1-9.165-8.783,9.009,9.009,0,0,1,9-9.217H50.7a.72.72,0,0,1,.72.72v4.622a.72.72,0,0,1-.72.72h-1.56a.72.72,0,0,1-.72-.72V17.18a.18.18,0,0,0-.18-.18H46.174a6.112,6.112,0,0,0-6.135,6.1,6.007,6.007,0,0,0,6,5.9h2.2a.18.18,0,0,0,.18-.18V26.866a.72.72,0,0,1,.72-.72H50.7a.72.72,0,0,1,.72.72V31.28A.72.72,0,0,1,50.7,32Z" transform="translate(-37 -14.004)"/>
    <path id="Path_53" data-name="Path 53" class="cls-1" d="M1859.959,32H1849.52a.72.72,0,0,1-.72-.72V14.721a.72.72,0,0,1,.72-.721h1.56a.72.72,0,0,1,.72.72v14.1a.18.18,0,0,0,.18.18h5.52a.18.18,0,0,0,.18-.18V26.866a.72.72,0,0,1,.72-.72h1.56a.72.72,0,0,1,.72.72V31.28A.72.72,0,0,1,1859.959,32Z" transform="translate(-1815.484 -14.004)"/>
    <path id="Path_54" data-name="Path 54" class="cls-1" d="M2641.16,17.18v4.14a.18.18,0,0,0,.18.18h7.593a.72.72,0,0,1,.72.72v1.56a.72.72,0,0,1-.72.72h-7.593a.18.18,0,0,0-.18.18v4.14a.18.18,0,0,0,.18.18h9.342a.72.72,0,0,1,.72.72v1.56a.72.72,0,0,1-.72.72h-11.8a.72.72,0,0,1-.72-.72V14.72a.72.72,0,0,1,.72-.72h11.8a.72.72,0,0,1,.72.72v1.56a.72.72,0,0,1-.72.72h-9.342A.18.18,0,0,0,2641.16,17.18Z" transform="translate(-2590.346 -14.004)"/>
    <path id="Path_55" data-name="Path 55" class="cls-1" d="M974.66,17.18v4.14a.18.18,0,0,0,.18.18h7.589a.72.72,0,0,1,.72.72v1.56a.72.72,0,0,1-.72.72h-7.59a.18.18,0,0,0-.18.18v4.14a.18.18,0,0,0,.18.18h9.34a.72.72,0,0,1,.72.72v1.56a.72.72,0,0,1-.72.72h-11.8a.72.72,0,0,1-.72-.72V14.72a.72.72,0,0,1,.72-.72h11.8a.72.72,0,0,1,.72.72v1.56a.72.72,0,0,1-.72.72h-9.34A.18.18,0,0,0,974.66,17.18Z" transform="translate(-954.455 -14.004)"/>
  </g>
</svg>
