<svg xmlns="http://www.w3.org/2000/svg" viewBox="10773 8357 27 16.858">
  <defs>
    <style>
      .cls-1 {
        fill: #444;
      }
    </style>
  </defs>
  <g id="logo-behance" transform="translate(10773 8354)">
    <path id="Path_60" data-name="Path 60" class="cls-1" d="M10.955,10.416a2.88,2.88,0,0,0,2.528-3.2C13.483,4.18,11.124,3,8.427,3H0V19.854H8.427s5.562-.169,5.562-5.225C13.989,14.629,14.326,10.416,10.955,10.416ZM3.876,5.7H8.764s1.18,0,1.18,1.685S9.27,9.4,8.427,9.4H3.876ZM8.427,16.483H3.876V12.1H8.764s1.685,0,1.685,2.36A1.815,1.815,0,0,1,8.427,16.483Z"/>
    <path id="Path_61" data-name="Path 61" class="cls-1" d="M15.108,5.4c-6.4,0-6.4,6.4-6.4,6.4s-.506,6.4,6.4,6.4c0,0,5.73.337,5.73-4.382H17.973s.169,1.854-2.7,1.854a2.675,2.675,0,0,1-2.865-2.865h8.6C21.007,12.647,21.849,5.4,15.108,5.4Zm2.7,5.056H12.243a2.909,2.909,0,0,1,2.865-2.528A2.457,2.457,0,0,1,17.8,10.456Z" transform="translate(5.96 1.645)"/>
    <rect id="Rectangle_50" data-name="Rectangle 50" class="cls-1" width="8.427" height="1.685" transform="translate(16.854 3)"/>
  </g>
</svg>
