<svg xmlns="http://www.w3.org/2000/svg" viewBox="10914 8352 27 27">
  <defs>
    <style>
      .cls-1 {
        fill: #444;
      }
    </style>
  </defs>
  <g id="logo-instagram" transform="translate(10914 8352)">
    <circle id="Ellipse_4" data-name="Ellipse 4" class="cls-1" cx="1.62" cy="1.62" r="1.62" transform="translate(18.875 4.948)"/>
    <path id="Path_63" data-name="Path 63" class="cls-1" d="M10.75,17.5a6.75,6.75,0,1,1,6.75-6.75A6.757,6.757,0,0,1,10.75,17.5Zm0-10.125a3.375,3.375,0,1,0,3.375,3.375A3.378,3.378,0,0,0,10.75,7.375Z" transform="translate(2.75 2.75)"/>
    <path id="Path_64" data-name="Path 64" class="cls-1" d="M20.25,27H6.75A7.111,7.111,0,0,1,0,20.25V6.75A7.111,7.111,0,0,1,6.75,0h13.5A7.111,7.111,0,0,1,27,6.75v13.5A7.111,7.111,0,0,1,20.25,27ZM6.75,3.375A3.822,3.822,0,0,0,3.375,6.75v13.5A3.765,3.765,0,0,0,6.75,23.625h13.5a3.822,3.822,0,0,0,3.375-3.375V6.75A3.822,3.822,0,0,0,20.25,3.375Z"/>
  </g>
</svg>
