<svg xmlns="http://www.w3.org/2000/svg" viewBox="10867 8355 27 21.938">
  <defs>
    <style>
      .cls-1 {
        fill: #444;
      }
    </style>
  </defs>
  <g id="logo-twitter" transform="translate(10867 8353.5)">
    <path id="Path_59" data-name="Path 59" class="cls-1" d="M27,4.031a9.987,9.987,0,0,1-3.206.844,4.771,4.771,0,0,0,2.363-3.037,11.072,11.072,0,0,1-3.544,1.35A5.893,5.893,0,0,0,18.563,1.5a5.587,5.587,0,0,0-5.4,5.569,2.5,2.5,0,0,0,.169,1.181A15.528,15.528,0,0,1,1.856,2.512a5.171,5.171,0,0,0-.675,2.869A5.538,5.538,0,0,0,3.713,9.938a7.072,7.072,0,0,1-2.531-.675h0a5.447,5.447,0,0,0,4.387,5.4,4.672,4.672,0,0,1-1.519.169,2.14,2.14,0,0,1-1.013-.169,5.468,5.468,0,0,0,5.231,3.881A10.731,10.731,0,0,1,1.35,20.906H0a16.464,16.464,0,0,0,8.437,2.531A15.62,15.62,0,0,0,24.131,7.744V7.069A9.811,9.811,0,0,0,27,4.031Z" transform="translate(0 0)"/>
  </g>
</svg>
