<svg xmlns="http://www.w3.org/2000/svg" viewBox="10820 8352 27 27">
  <defs>
    <style>
      .cls-1 {
        fill: #444;
        fill-rule: evenodd;
      }
    </style>
  </defs>
  <g id="logo-dribbble" transform="translate(10820 8352)">
    <path id="Path_62" data-name="Path 62" class="cls-1" d="M13.5,0A13.5,13.5,0,1,0,27,13.5,13.54,13.54,0,0,0,13.5,0Zm3.712,12.488s-.337-1.012-.506-1.35a16.514,16.514,0,0,0,5.4-3.713,10.057,10.057,0,0,1,2.025,5.4A17.669,17.669,0,0,0,17.212,12.488ZM15.356,8.606c-1.35-2.362-2.869-4.387-3.544-5.569a8.61,8.61,0,0,1,8.269,2.194A11.937,11.937,0,0,1,15.356,8.606ZM8.606,4.219a40.184,40.184,0,0,1,3.375,5.4,41.48,41.48,0,0,1-8.606,1.013A10.39,10.39,0,0,1,8.606,4.219Zm4.894,8.1a3.689,3.689,0,0,0,.506.844,17.879,17.879,0,0,0-8.775,6.919,10.794,10.794,0,0,1-2.194-6.244A62.691,62.691,0,0,0,13.5,12.319Zm1.688,3.712a42.477,42.477,0,0,1,2.025,7.425c-3.544,1.181-7.594.506-9.788-1.35A14.845,14.845,0,0,1,15.188,16.031Zm4.894,5.737a63.571,63.571,0,0,0-1.856-6.581,14.287,14.287,0,0,1,5.569.337A10.794,10.794,0,0,1,20.081,21.769Z"/>
  </g>
</svg>
