<svg xmlns="http://www.w3.org/2000/svg" viewBox="10726 8352 27 26.832">
  <defs>
    <style>
      .cls-1 {
        fill: #444;
      }
    </style>
  </defs>
  <g id="logo-linkedin" transform="translate(10726 8352)">
    <path id="Path_65" data-name="Path 65" class="cls-1" d="M25.658,0H1.174A1.146,1.146,0,0,0,0,1.174V25.826a1.121,1.121,0,0,0,1.174,1.006H25.826A1.146,1.146,0,0,0,27,25.658V1.174A1.423,1.423,0,0,0,25.658,0ZM7.882,22.807H4.025V10.062H8.05V22.807ZM6.037,8.385A2.4,2.4,0,0,1,3.689,6.037,2.293,2.293,0,0,1,6.037,3.689,2.293,2.293,0,0,1,8.385,6.037,2.672,2.672,0,0,1,6.037,8.385Zm16.77,14.422H18.783V16.6c0-1.509,0-3.354-2.012-3.354s-2.348,1.677-2.348,3.354v6.373H10.4V10.062h3.857v1.677h0a4.093,4.093,0,0,1,3.689-2.012c4.025,0,4.7,2.683,4.7,6.037v7.043Z"/>
  </g>
</svg>
